<svg role="img" viewBox="0 0 48 48" xmlns="http://www.w3.org/2000/svg" id="Tryhackme--Streamline-Simple-Icons" height="48" width="48"><desc>Tryhackme Streamline Icon: https://streamlinehq.com</desc><title>TryHackMe</title><path d="M21.41 0C15.08 0 9.804 4.57 8.698 10.582a9.05 9.05 0 0 0 -8.214 9 9.05 9.05 0 0 0 9.04 9.04h13.522a1.25 1.25 0 1 0 0 -2.5H9.522a6.546 6.546 0 0 1 -6.54 -6.54A6.546 6.546 0 0 1 13.18 14.16a1.25 1.25 0 0 0 1.4 -2.07 8.976 8.976 0 0 0 -3.36 -1.38 10.446 10.446 0 0 1 10.192 -8.208 10.442 10.442 0 0 1 10.348 9.14 8.978 8.978 0 0 0 -0.976 0.61 1.25 1.25 0 1 0 1.462 2.026 6.49 6.49 0 0 1 3.824 -1.232 6.556 6.556 0 0 1 6.406 5.22 1.25 1.25 0 0 0 2.45 -0.502 9.066 9.066 0 0 0 -8.856 -7.22 9.08 9.08 0 0 0 -1.916 0.21C33.112 4.656 27.8 0 21.41 0zm10.384 21.28a1.85 1.85 0 0 0 -0.924 0.216 1.826 1.826 0 0 0 -0.626 0.58 2.54 2.54 0 0 0 -0.35 0.854 4.78 4.78 0 0 0 -0.108 1.028c0 0.362 0.036 0.706 0.108 1.034 0.072 0.328 0.19 0.614 0.35 0.86a1.798 1.798 0 0 0 0.626 0.594c0.254 0.146 0.562 0.22 0.924 0.22 0.36 0 0.668 -0.074 0.92 -0.22a1.794 1.794 0 0 0 0.618 -0.592c0.16 -0.248 0.274 -0.534 0.346 -0.862 0.072 -0.328 0.108 -0.672 0.108 -1.034 0 -0.36 -0.036 -0.704 -0.108 -1.028a2.542 2.542 0 0 0 -0.346 -0.852 1.802 1.802 0 0 0 -0.618 -0.582 1.834 1.834 0 0 0 -0.92 -0.216zm12.972 0a1.85 1.85 0 0 0 -0.924 0.216 1.826 1.826 0 0 0 -0.626 0.58 2.54 2.54 0 0 0 -0.35 0.854 4.78 4.78 0 0 0 -0.106 1.028c0 0.362 0.034 0.706 0.106 1.034 0.072 0.328 0.19 0.614 0.35 0.86a1.798 1.798 0 0 0 0.626 0.594c0.254 0.146 0.562 0.22 0.924 0.22 0.36 0 0.668 -0.074 0.92 -0.22a1.794 1.794 0 0 0 0.62 -0.592c0.156 -0.248 0.272 -0.534 0.344 -0.862 0.072 -0.328 0.108 -0.672 0.108 -1.034 0 -0.36 -0.036 -0.704 -0.108 -1.028a2.542 2.542 0 0 0 -0.346 -0.852 1.802 1.802 0 0 0 -0.616 -0.582 1.832 1.832 0 0 0 -0.922 -0.216zm-17.074 0.136 -1.68 1.236 0.626 0.86 0.952 -0.736v3.754h1.206v-5.114zm12.972 0 -1.682 1.236 0.628 0.86 0.954 -0.736v3.754h1.206v-5.114zm-8.87 0.89c0.16 0 0.286 0.056 0.386 0.168 0.1 0.114 0.174 0.254 0.228 0.42 0.052 0.166 0.088 0.346 0.108 0.538a5.082 5.082 0 0 1 0 1.066c-0.02 0.194 -0.056 0.374 -0.108 0.54a1.168 1.168 0 0 1 -0.228 0.42 0.486 0.486 0 0 1 -0.386 0.17 0.496 0.496 0 0 1 -0.39 -0.172 1.168 1.168 0 0 1 -0.236 -0.418 2.49 2.49 0 0 1 -0.112 -0.54 5.29 5.29 0 0 1 0 -1.066c0.02 -0.192 0.058 -0.372 0.112 -0.54a1.166 1.166 0 0 1 0.236 -0.418 0.5 0.5 0 0 1 0.39 -0.168zm12.972 0c0.16 0 0.288 0.056 0.386 0.168 0.1 0.114 0.174 0.254 0.228 0.42 0.054 0.166 0.088 0.346 0.108 0.538a5.082 5.082 0 0 1 0 1.066c-0.02 0.194 -0.054 0.374 -0.108 0.54a1.168 1.168 0 0 1 -0.228 0.42 0.486 0.486 0 0 1 -0.386 0.17 0.498 0.498 0 0 1 -0.39 -0.172 1.162 1.162 0 0 1 -0.234 -0.418 2.49 2.49 0 0 1 -0.112 -0.54 5.284 5.284 0 0 1 0 -1.066c0.02 -0.192 0.056 -0.372 0.112 -0.54a1.16 1.16 0 0 1 0.234 -0.418 0.5 0.5 0 0 1 0.39 -0.168zm-4.382 7.02a1.86 1.86 0 0 0 -0.926 0.218 1.816 1.816 0 0 0 -0.624 0.582c-0.16 0.244 -0.278 0.526 -0.35 0.852a4.766 4.766 0 0 0 -0.108 1.028c0 0.36 0.036 0.706 0.108 1.032 0.072 0.328 0.188 0.616 0.35 0.864a1.82 1.82 0 0 0 0.624 0.592 1.84 1.84 0 0 0 0.926 0.22c0.36 0 0.666 -0.074 0.92 -0.22a1.784 1.784 0 0 0 0.616 -0.592 2.64 2.64 0 0 0 0.348 -0.864c0.072 -0.326 0.108 -0.67 0.108 -1.032 0 -0.36 -0.036 -0.704 -0.108 -1.028a2.548 2.548 0 0 0 -0.348 -0.852 1.78 1.78 0 0 0 -0.618 -0.582 1.836 1.836 0 0 0 -0.92 -0.216zm-12.804 0.14 -1.682 1.234 0.628 0.86 0.952 -0.738v3.756h1.208v-5.114zm4.25 0 -1.682 1.234 0.628 0.86 0.954 -0.738v3.756h1.206v-5.114zm4.232 0 -1.68 1.234 0.626 0.86 0.954 -0.738v3.756h1.206v-5.114zm4.32 0.886c0.16 0 0.288 0.056 0.388 0.17a1.21 1.21 0 0 1 0.228 0.42c0.052 0.166 0.088 0.344 0.106 0.538a5.278 5.278 0 0 1 0 1.064 2.56 2.56 0 0 1 -0.106 0.54 1.17 1.17 0 0 1 -0.228 0.42 0.488 0.488 0 0 1 -0.386 0.17 0.5 0.5 0 0 1 -0.392 -0.17 1.178 1.178 0 0 1 -0.234 -0.42 2.49 2.49 0 0 1 -0.112 -0.54 5.194 5.194 0 0 1 0 -1.064c0.02 -0.194 0.056 -0.372 0.112 -0.54a1.178 1.178 0 0 1 0.234 -0.418 0.498 0.498 0 0 1 0.392 -0.17zm-13.458 6.146a1.352 1.352 0 0 0 -0.67 0.156 1.322 1.322 0 0 0 -0.454 0.422 1.82 1.82 0 0 0 -0.254 0.62c-0.054 0.236 -0.08 0.484 -0.08 0.746s0.026 0.512 0.08 0.75a1.86 1.86 0 0 0 0.254 0.626 1.3 1.3 0 0 0 0.454 0.43c0.184 0.106 0.408 0.16 0.67 0.16a1.31 1.31 0 0 0 0.668 -0.16 1.3 1.3 0 0 0 0.45 -0.43c0.114 -0.18 0.2 -0.388 0.25 -0.626a3.5 3.5 0 0 0 0.08 -0.75c0 -0.26 -0.028 -0.51 -0.08 -0.746a1.862 1.862 0 0 0 -0.25 -0.62 1.316 1.316 0 0 0 -0.45 -0.42 1.334 1.334 0 0 0 -0.668 -0.16zm6.172 0a1.35 1.35 0 0 0 -0.672 0.156 1.322 1.322 0 0 0 -0.452 0.422 1.814 1.814 0 0 0 -0.254 0.62 3.38 3.38 0 0 0 -0.08 0.746c0 0.262 0.026 0.512 0.08 0.75a1.856 1.856 0 0 0 0.254 0.626c0.116 0.18 0.268 0.324 0.452 0.43 0.186 0.106 0.41 0.16 0.672 0.16a1.31 1.31 0 0 0 0.668 -0.16 1.3 1.3 0 0 0 0.448 -0.43c0.116 -0.18 0.2 -0.388 0.252 -0.626a3.504 3.504 0 0 0 0 -1.496 1.88 1.88 0 0 0 -0.252 -0.62 1.314 1.314 0 0 0 -0.448 -0.42 1.334 1.334 0 0 0 -0.668 -0.16zm10.216 0a1.35 1.35 0 0 0 -0.672 0.156 1.322 1.322 0 0 0 -0.452 0.422 1.82 1.82 0 0 0 -0.254 0.62c-0.054 0.236 -0.08 0.484 -0.08 0.746s0.026 0.512 0.08 0.75a1.862 1.862 0 0 0 0.254 0.626c0.116 0.18 0.268 0.324 0.452 0.43 0.186 0.106 0.41 0.16 0.672 0.16 0.26 0 0.486 -0.054 0.668 -0.16a1.3 1.3 0 0 0 0.448 -0.43c0.116 -0.18 0.2 -0.388 0.252 -0.626a3.5 3.5 0 0 0 0.08 -0.75c0 -0.26 -0.028 -0.51 -0.08 -0.746a1.886 1.886 0 0 0 -0.252 -0.62 1.314 1.314 0 0 0 -0.448 -0.42 1.336 1.336 0 0 0 -0.668 -0.16zm-13.316 0.1 -1.22 0.896 0.454 0.622 0.692 -0.532v2.724h0.876v-3.712zm6.136 0 -1.22 0.896 0.454 0.622 0.692 -0.532v2.724h0.876v-3.712zm10.216 0 -1.222 0.896 0.456 0.622 0.692 -0.532v2.724h0.876v-3.712zm-19.424 0.644c0.116 0 0.21 0.04 0.28 0.124a0.842 0.842 0 0 1 0.166 0.302 1.92 1.92 0 0 1 0.08 0.392 3.864 3.864 0 0 1 0 0.772 1.908 1.908 0 0 1 -0.08 0.394 0.842 0.842 0 0 1 -0.166 0.304 0.352 0.352 0 0 1 -0.28 0.122 0.36 0.36 0 0 1 -0.282 -0.12 0.854 0.854 0 0 1 -0.17 -0.306 1.774 1.774 0 0 1 -0.082 -0.394 3.92 3.92 0 0 1 0 -0.772 1.786 1.786 0 0 1 0.08 -0.392 0.84 0.84 0 0 1 0.172 -0.302 0.362 0.362 0 0 1 0.282 -0.124zm6.172 0c0.116 0 0.208 0.04 0.28 0.124a0.842 0.842 0 0 1 0.164 0.302 1.88 1.88 0 0 1 0.08 0.392 3.812 3.812 0 0 1 0 0.772 1.86 1.86 0 0 1 -0.08 0.394 0.842 0.842 0 0 1 -0.164 0.304 0.352 0.352 0 0 1 -0.28 0.122 0.36 0.36 0 0 1 -0.282 -0.12 0.84 0.84 0 0 1 -0.172 -0.306 1.692 1.692 0 0 1 -0.08 -0.394 3.93 3.93 0 0 1 -0.022 -0.39c0 -0.114 0.008 -0.242 0.02 -0.382a1.698 1.698 0 0 1 0.082 -0.392 0.84 0.84 0 0 1 0.172 -0.302 0.364 0.364 0 0 1 0.282 -0.124zm10.216 0c0.116 0 0.208 0.04 0.28 0.124a0.842 0.842 0 0 1 0.164 0.302 1.84 1.84 0 0 1 0.08 0.392 3.926 3.926 0 0 1 0 0.772 1.886 1.886 0 0 1 -0.08 0.394 0.842 0.842 0 0 1 -0.164 0.304 0.354 0.354 0 0 1 -0.28 0.122 0.36 0.36 0 0 1 -0.284 -0.12 0.874 0.874 0 0 1 -0.17 -0.306 1.9 1.9 0 0 1 -0.08 -0.394 3.93 3.93 0 0 1 -0.022 -0.39c0 -0.114 0.008 -0.242 0.02 -0.382a1.918 1.918 0 0 1 0.08 -0.392 0.94 0.94 0 0 1 0.172 -0.302 0.362 0.362 0 0 1 0.284 -0.124zm-3.368 3.628a1.35 1.35 0 0 0 -0.672 0.158 1.32 1.32 0 0 0 -0.454 0.42 1.82 1.82 0 0 0 -0.254 0.62 3.462 3.462 0 0 0 0 1.496 1.878 1.878 0 0 0 0.254 0.628c0.118 0.18 0.268 0.324 0.454 0.43 0.186 0.106 0.41 0.16 0.672 0.16a1.32 1.32 0 0 0 0.668 -0.16 1.296 1.296 0 0 0 0.448 -0.43c0.116 -0.18 0.2 -0.39 0.252 -0.628a3.474 3.474 0 0 0 -0.002 -1.494 1.856 1.856 0 0 0 -0.25 -0.62 1.3 1.3 0 0 0 -0.448 -0.422 1.336 1.336 0 0 0 -0.668 -0.158zm6.126 0a1.352 1.352 0 0 0 -0.672 0.158 1.328 1.328 0 0 0 -0.454 0.42 1.812 1.812 0 0 0 -0.254 0.62 3.48 3.48 0 0 0 0 1.496 1.872 1.872 0 0 0 0.254 0.628 1.32 1.32 0 0 0 0.454 0.43c0.184 0.106 0.408 0.16 0.672 0.16a1.308 1.308 0 0 0 0.668 -0.16 1.296 1.296 0 0 0 0.446 -0.43c0.116 -0.18 0.2 -0.39 0.252 -0.628a3.48 3.48 0 0 0 0 -1.494 1.856 1.856 0 0 0 -0.252 -0.62 1.3 1.3 0 0 0 -0.446 -0.422 1.332 1.332 0 0 0 -0.668 -0.158zm-3.09 0.1 -1.222 0.896 0.456 0.624 0.692 -0.534v2.726h0.876v-3.712zm-3.036 0.646c0.114 0 0.208 0.04 0.28 0.122a0.84 0.84 0 0 1 0.164 0.304 1.82 1.82 0 0 1 0.08 0.39 3.932 3.932 0 0 1 0 0.774 1.902 1.902 0 0 1 -0.08 0.394 0.842 0.842 0 0 1 -0.164 0.304 0.354 0.354 0 0 1 -0.28 0.12 0.36 0.36 0 0 1 -0.284 -0.12 0.856 0.856 0 0 1 -0.17 -0.304 1.828 1.828 0 0 1 -0.08 -0.394 3.92 3.92 0 0 1 -0.022 -0.39c0 -0.116 0.006 -0.244 0.02 -0.384a1.846 1.846 0 0 1 0.082 -0.39c0.04 -0.12 0.096 -0.22 0.17 -0.304a0.362 0.362 0 0 1 0.284 -0.122zm6.126 0c0.114 0 0.208 0.04 0.28 0.122a0.84 0.84 0 0 1 0.164 0.304 1.88 1.88 0 0 1 0.08 0.39 3.82 3.82 0 0 1 0 0.774 1.86 1.86 0 0 1 -0.08 0.394 0.844 0.844 0 0 1 -0.166 0.304 0.35 0.35 0 0 1 -0.28 0.12 0.36 0.36 0 0 1 -0.282 -0.12 0.846 0.846 0 0 1 -0.17 -0.304 1.814 1.814 0 0 1 -0.08 -0.394 3.9 3.9 0 0 1 0 -0.774 1.83 1.83 0 0 1 0.08 -0.39c0.04 -0.12 0.096 -0.22 0.17 -0.304a0.364 0.364 0 0 1 0.284 -0.122zm-19.426 0.37a0.93 0.93 0 0 0 -0.464 0.11 0.912 0.912 0 0 0 -0.314 0.292 1.254 1.254 0 0 0 -0.178 0.43 2.336 2.336 0 0 0 -0.054 0.518c0 0.18 0.018 0.354 0.054 0.52a1.296 1.296 0 0 0 0.178 0.432c0.08 0.126 0.186 0.224 0.314 0.298a0.918 0.918 0 0 0 0.464 0.112c0.18 0 0.336 -0.04 0.462 -0.112a0.9 0.9 0 0 0 0.312 -0.298 1.34 1.34 0 0 0 0.174 -0.434 2.436 2.436 0 0 0 0 -1.036 1.294 1.294 0 0 0 -0.174 -0.43 0.896 0.896 0 0 0 -0.312 -0.292 0.916 0.916 0 0 0 -0.46 -0.11zm2.104 0.07 -0.846 0.62 0.316 0.434 0.48 -0.37v1.888h0.606v-2.572zm-2.104 0.448c0.08 0 0.146 0.028 0.194 0.084a0.568 0.568 0 0 1 0.114 0.21 1.38 1.38 0 0 1 0.056 0.272c0.008 0.098 0.014 0.184 0.014 0.266 0 0.08 -0.006 0.172 -0.014 0.27a1.368 1.368 0 0 1 -0.056 0.272 0.57 0.57 0 0 1 -0.114 0.21 0.246 0.246 0 0 1 -0.194 0.086 0.25 0.25 0 0 1 -0.196 -0.086 0.596 0.596 0 0 1 -0.118 -0.21 1.224 1.224 0 0 1 -0.056 -0.272 2.78 2.78 0 0 1 0 -0.536 1.24 1.24 0 0 1 0.056 -0.272 0.594 0.594 0 0 1 0.12 -0.21 0.25 0.25 0 0 1 0.194 -0.084zm7.55 2.788a0.926 0.926 0 0 0 -0.464 0.108 0.904 0.904 0 0 0 -0.314 0.292 1.242 1.242 0 0 0 -0.176 0.428 2.38 2.38 0 0 0 0 1.038 1.282 1.282 0 0 0 0.176 0.434 0.92 0.92 0 0 0 0.314 0.3 0.916 0.916 0 0 0 0.464 0.108 0.908 0.908 0 0 0 0.464 -0.11 0.9 0.9 0 0 0 0.31 -0.298 1.328 1.328 0 0 0 0.174 -0.434 2.378 2.378 0 0 0 0 -1.038 1.284 1.284 0 0 0 -0.174 -0.428 0.892 0.892 0 0 0 -0.31 -0.292 0.918 0.918 0 0 0 -0.464 -0.108zm2.104 0.068 -0.846 0.62 0.316 0.432 0.48 -0.37v1.89h0.606V45.36zm-2.104 0.446c0.08 0 0.146 0.028 0.196 0.086a0.6 0.6 0 0 1 0.114 0.21 1.286 1.286 0 0 1 0.054 0.27 2.62 2.62 0 0 1 0 0.536 1.308 1.308 0 0 1 -0.054 0.274 0.614 0.614 0 0 1 -0.114 0.21 0.248 0.248 0 0 1 -0.196 0.084 0.25 0.25 0 0 1 -0.196 -0.084 0.586 0.586 0 0 1 -0.118 -0.21 1.236 1.236 0 0 1 -0.056 -0.274 2.728 2.728 0 0 1 0 -0.536 1.224 1.224 0 0 1 0.056 -0.27 0.574 0.574 0 0 1 0.12 -0.21 0.246 0.246 0 0 1 0.194 -0.086z" fill="#ffffff" stroke-width="2"></path></svg>