<!-- Guarda esto como "fantasmitos.svg" -->
<svg xmlns="http://www.w3.org/2000/svg" viewBox="0 0 200 80" width="600" height="240" aria-labelledby="title">
  <title id="title">Tres fantasmitos estilo Pac-Man (rojo, verde, azul)</title>

  <!-- Fantasma rojo -->
  <g transform="translate(0,0)">
    <path d="M8 40 A24 28 0 0 1 56 40 L56 64 Q48 56 40 64 Q32 56 24 64 Q16 56 8 64 Z" fill="#ff2b2b"></path>
    <path d="M8 40 A24 28 0 0 1 56 40 L56 44 A20 24 0 0 0 8 44 Z" fill="#ff2b2b"></path>
    <g transform="translate(0,8)">
      <ellipse cx="24" cy="28" rx="6.5" ry="9" fill="#ffffff"></ellipse>
      <ellipse cx="40" cy="28" rx="6.5" ry="9" fill="#ffffff"></ellipse>
      <circle cx="26" cy="30" r="3.2" fill="#000000"></circle>
      <circle cx="42" cy="30" r="3.2" fill="#000000"></circle>
    </g>
  </g>

  <!-- Fantasma verde -->
  <g transform="translate(70,0)">
    <path d="M8 40 A24 28 0 0 1 56 40 L56 64 Q48 56 40 64 Q32 56 24 64 Q16 56 8 64 Z" fill="#30d14a"></path>
    <path d="M8 40 A24 28 0 0 1 56 40 L56 44 A20 24 0 0 0 8 44 Z" fill="#30d14a"></path>
    <g transform="translate(0,8)">
      <ellipse cx="24" cy="28" rx="6.5" ry="9" fill="#ffffff"></ellipse>
      <ellipse cx="40" cy="28" rx="6.5" ry="9" fill="#ffffff"></ellipse>
      <circle cx="26" cy="30" r="3.2" fill="#000000"></circle>
      <circle cx="42" cy="30" r="3.2" fill="#000000"></circle>
    </g>
  </g>

  <!-- Fantasma azul -->
  <g transform="translate(140,0)">
    <path d="M8 40 A24 28 0 0 1 56 40 L56 64 Q48 56 40 64 Q32 56 24 64 Q16 56 8 64 Z" fill="#2b6cff"></path>
    <path d="M8 40 A24 28 0 0 1 56 40 L56 44 A20 24 0 0 0 8 44 Z" fill="#2b6cff"></path>
    <g transform="translate(0,8)">
      <ellipse cx="24" cy="28" rx="6.5" ry="9" fill="#ffffff"></ellipse>
      <ellipse cx="40" cy="28" rx="6.5" ry="9" fill="#ffffff"></ellipse>
      <circle cx="26" cy="30" r="3.2" fill="#000000"></circle>
      <circle cx="42" cy="30" r="3.2" fill="#000000"></circle>
    </g>
  </g>
</svg>
